<?xml version="1.0" encoding="UTF-8" standalone="no"?>
<!-- Created with Inkscape (http://www.inkscape.org/) -->

<svg
   version="1.1"
   id="svg284"
   width="880"
   height="880"
   viewBox="0 0 880 880"
   sodipodi:docname="batteries-in-blister-publicdomainvectors.org.svg"
   inkscape:version="1.2 (dc2aedaf03, 2022-05-15)"
   xmlns:inkscape="http://www.inkscape.org/namespaces/inkscape"
   xmlns:sodipodi="http://sodipodi.sourceforge.net/DTD/sodipodi-0.dtd"
   xmlns="http://www.w3.org/2000/svg"
   xmlns:svg="http://www.w3.org/2000/svg">
  <defs
     id="defs288">
    <clipPath
       clipPathUnits="userSpaceOnUse"
       id="clipPath300">
      <path
         d="M 0,660 H 660 V 0 H 0 Z"
         id="path298" />
    </clipPath>
  </defs>
  <sodipodi:namedview
     id="namedview286"
     pagecolor="#ffffff"
     bordercolor="#000000"
     borderopacity="0.25"
     inkscape:showpageshadow="2"
     inkscape:pageopacity="0.0"
     inkscape:pagecheckerboard="0"
     inkscape:deskcolor="#d1d1d1"
     showgrid="false"
     inkscape:zoom="0.95113636"
     inkscape:cx="440.52569"
     inkscape:cy="440.52569"
     inkscape:window-width="1920"
     inkscape:window-height="1017"
     inkscape:window-x="-8"
     inkscape:window-y="-8"
     inkscape:window-maximized="1"
     inkscape:current-layer="g292">
    <inkscape:page
       x="0"
       y="0"
       id="page290"
       width="880"
       height="880" />
  </sodipodi:namedview>
  <g
     id="g292"
     inkscape:groupmode="layer"
     inkscape:label="Page 1"
     transform="matrix(1.3333333,0,0,-1.3333333,0,880)">
    <g
       id="g294">
      <g
         id="g296"
         clip-path="url(#clipPath300)">
        <g
           id="g302"
           transform="translate(274.4736,532.1982)">
          <path
             d="m 0,0 c -10.196,0 -18.54,-8.344 -18.54,-18.542 0,-10.197 8.344,-18.54 18.54,-18.54 h 121.006 c 10.199,0 18.542,8.343 18.542,18.54 C 139.548,-8.344 131.205,0 121.006,0 H 106.925 C 99.78,0 93.698,4.285 91.293,11.011 86.774,23.648 74.694,32.691 60.504,32.691 46.312,32.691 34.234,23.648 29.714,11.011 27.307,4.284 21.228,0 14.081,0 Z m -135.345,61.853 h 391.698 c 27.554,0 50.1,-22.545 50.1,-50.1 v -356.4 c 0,-27.557 -22.546,-50.1 -50.1,-50.1 h -391.698 c -27.556,0 -50.101,22.543 -50.101,50.1 v 356.4 c 0,27.555 22.545,50.1 50.101,50.1"
             style="fill:#94ab13;fill-opacity:1;fill-rule:evenodd;stroke:none"
             id="path304" />
        </g>
        <g
           id="g306"
           transform="translate(160.084,407.8823)">
          <path
             d="m 0,0 h 349.786 c 8.143,0 14.804,-6.662 14.804,-14.804 v -189.584 c 0,-8.143 -6.661,-14.803 -14.804,-14.803 H 0 c -8.143,0 -14.803,6.66 -14.803,14.803 V -14.804 C -14.803,-6.662 -8.143,0 0,0"
             style="fill:#bad526;fill-opacity:1;fill-rule:evenodd;stroke:none"
             id="path308" />
        </g>
        <g
           id="g310"
           transform="translate(171.6475,274.791)">
          <path
             d="m 0,0 c 1.806,6.441 7.737,11.184 14.734,11.184 h 294.912 c 6.997,0 12.929,-4.743 14.734,-11.184 2.339,-1.613 3.877,-4.309 3.877,-7.357 v -9.278 c 1.431,-1.599 2.278,-3.703 2.278,-5.953 v -13.156 c 0,-2.25 -0.847,-4.354 -2.278,-5.953 v -9.278 c 0,-3.048 -1.536,-5.746 -3.875,-7.357 -1.807,-6.441 -7.739,-11.184 -14.736,-11.184 H 14.734 c -6.996,0 -12.928,4.743 -14.733,11.184 -2.339,1.611 -3.876,4.309 -3.876,7.357 v 43.618 c 0,3.048 1.536,5.744 3.875,7.357 m 0,94.508 c 1.806,6.443 7.737,11.184 14.734,11.184 h 294.912 c 6.997,0 12.929,-4.741 14.734,-11.184 2.339,-1.612 3.877,-4.308 3.877,-7.357 v -9.277 c 1.431,-1.601 2.278,-3.703 2.278,-5.954 V 58.764 c 0,-2.251 -0.847,-4.353 -2.278,-5.951 v -9.28 c 0,-3.047 -1.536,-5.744 -3.875,-7.357 -1.807,-6.44 -7.739,-11.184 -14.736,-11.184 H 14.734 c -6.996,0 -12.928,4.742 -14.733,11.184 -2.339,1.611 -3.876,4.31 -3.876,7.357 v 43.618 c 0,3.048 1.536,5.745 3.875,7.357"
             style="fill:#a7bf1c;fill-opacity:1;fill-rule:evenodd;stroke:none"
             id="path312" />
        </g>
        <g
           id="g314"
           transform="translate(176.7041,365.2524)">
          <path
             d="m 0,0 h 7.469 c 1.821,0 3.31,-1.489 3.31,-3.31 v -43.618 c 0,-1.82 -1.489,-3.311 -3.31,-3.311 H 0 c -1.821,0 -3.311,1.491 -3.311,3.311 V -3.31 C -3.311,-1.489 -1.821,0 0,0"
             style="fill:#d6d6d6;fill-opacity:1;fill-rule:evenodd;stroke:none"
             id="path316" />
        </g>
        <g
           id="g318"
           transform="translate(485.7813,350.0229)">
          <path
             d="M 0,0 H 7.471 C 9.29,0 10.78,-1.489 10.78,-3.311 v -13.157 c 0,-1.821 -1.49,-3.311 -3.309,-3.311 H 0 c -1.82,0 -3.311,1.49 -3.311,3.311 V -3.311 C -3.311,-1.489 -1.82,0 0,0"
             style="fill:#ebebeb;fill-opacity:1;fill-rule:evenodd;stroke:none"
             id="path320" />
        </g>
        <g
           id="g322"
           transform="translate(483.5029,365.2524)">
          <path
             d="m 0,0 h 7.469 c 1.822,0 3.312,-1.489 3.312,-3.31 v -43.618 c 0,-1.82 -1.49,-3.311 -3.312,-3.311 H 0 c -1.821,0 -3.31,1.491 -3.31,3.311 V -3.31 C -3.31,-1.489 -1.821,0 0,0"
             style="fill:#d6d6d6;fill-opacity:1;fill-rule:evenodd;stroke:none"
             id="path324" />
        </g>
        <g
           id="g326"
           transform="translate(186.3818,374.8628)">
          <path
             d="M 0,0 H 209.513 V -69.458 H 0 c -5.323,0 -9.678,4.355 -9.678,9.677 V -9.679 C -9.678,-4.354 -5.323,0 0,0"
             style="fill:#333333;fill-opacity:1;fill-rule:evenodd;stroke:none"
             id="path328" />
        </g>
        <g
           id="g330"
           transform="translate(395.8945,374.8628)">
          <path
             d="m 0,0 h 85.399 c 5.325,0 9.678,-4.354 9.678,-9.679 v -50.102 c 0,-5.322 -4.353,-9.677 -9.678,-9.677 H 0 Z"
             style="fill:#f5ac00;fill-opacity:1;fill-rule:evenodd;stroke:none"
             id="path332" />
        </g>
        <g
           id="g334"
           transform="translate(198.6191,370.021)">
          <path
             d="M 0,0 H 197.275 V -27.897 H 0 c -7.671,0 -13.947,6.277 -13.947,13.949 C -13.947,-6.276 -7.671,0 0,0"
             style="fill:#ababab;fill-opacity:1;fill-rule:evenodd;stroke:none"
             id="path336" />
        </g>
        <g
           id="g338"
           transform="translate(395.8945,370.021)">
          <path
             d="m 0,0 h 70.311 c 7.672,0 13.947,-6.276 13.947,-13.948 0,-7.672 -6.275,-13.949 -13.947,-13.949 H 0 Z"
             style="fill:#ffcc00;fill-opacity:1;fill-rule:evenodd;stroke:none"
             id="path340" />
        </g>
        <g
           id="g342"
           transform="translate(207.1943,367.4595)">
          <path
             d="M 0,0 H 188.7 V -10.382 H 0 c -2.856,0 -5.191,2.336 -5.191,5.191 C -5.191,-2.336 -2.856,0 0,0"
             style="fill:#bfbfbf;fill-opacity:1;fill-rule:evenodd;stroke:none"
             id="path344" />
        </g>
        <g
           id="g346"
           transform="translate(395.8945,367.4595)">
          <path
             d="m 0,0 h 65.447 c 2.856,0 5.192,-2.336 5.192,-5.191 0,-2.855 -2.336,-5.191 -5.192,-5.191 H 0 Z"
             style="fill:#ffdd30;fill-opacity:1;fill-rule:evenodd;stroke:none"
             id="path348" />
        </g>
        <g
           id="g350"
           transform="translate(176.7041,270.7441)">
          <path
             d="m 0,0 h 7.469 c 1.821,0 3.31,-1.488 3.31,-3.31 v -43.618 c 0,-1.82 -1.489,-3.31 -3.31,-3.31 H 0 c -1.821,0 -3.311,1.49 -3.311,3.31 V -3.31 C -3.311,-1.488 -1.821,0 0,0"
             style="fill:#d6d6d6;fill-opacity:1;fill-rule:evenodd;stroke:none"
             id="path352" />
        </g>
        <g
           id="g354"
           transform="translate(485.7813,255.5156)">
          <path
             d="M 0,0 H 7.471 C 9.29,0 10.78,-1.49 10.78,-3.313 v -13.156 c 0,-1.822 -1.49,-3.312 -3.309,-3.312 H 0 c -1.82,0 -3.311,1.49 -3.311,3.312 V -3.313 C -3.311,-1.49 -1.82,0 0,0"
             style="fill:#ebebeb;fill-opacity:1;fill-rule:evenodd;stroke:none"
             id="path356" />
        </g>
        <g
           id="g358"
           transform="translate(483.5029,270.7441)">
          <path
             d="m 0,0 h 7.469 c 1.822,0 3.312,-1.488 3.312,-3.31 v -43.618 c 0,-1.82 -1.49,-3.31 -3.312,-3.31 H 0 c -1.821,0 -3.31,1.49 -3.31,3.31 V -3.31 C -3.31,-1.488 -1.821,0 0,0"
             style="fill:#d6d6d6;fill-opacity:1;fill-rule:evenodd;stroke:none"
             id="path360" />
        </g>
        <g
           id="g362"
           transform="translate(186.3818,280.3535)">
          <path
             d="M 0,0 H 209.513 V -69.459 H 0 c -5.323,0 -9.678,4.356 -9.678,9.68 V -9.678 C -9.678,-4.353 -5.323,0 0,0"
             style="fill:#333333;fill-opacity:1;fill-rule:evenodd;stroke:none"
             id="path364" />
        </g>
        <g
           id="g366"
           transform="translate(395.8945,280.3535)">
          <path
             d="m 0,0 h 85.399 c 5.325,0 9.678,-4.353 9.678,-9.678 v -50.101 c 0,-5.324 -4.353,-9.68 -9.678,-9.68 H 0 Z"
             style="fill:#f5ac00;fill-opacity:1;fill-rule:evenodd;stroke:none"
             id="path368" />
        </g>
        <g
           id="g370"
           transform="translate(198.6191,275.5117)">
          <path
             d="M 0,0 H 197.275 V -27.896 H 0 c -7.671,0 -13.947,6.275 -13.947,13.949 C -13.947,-6.277 -7.671,0 0,0"
             style="fill:#ababab;fill-opacity:1;fill-rule:evenodd;stroke:none"
             id="path372" />
        </g>
        <g
           id="g374"
           transform="translate(395.8945,275.5117)">
          <path
             d="m 0,0 h 70.311 c 7.672,0 13.947,-6.277 13.947,-13.947 0,-7.674 -6.275,-13.949 -13.947,-13.949 H 0 Z"
             style="fill:#ffcc00;fill-opacity:1;fill-rule:evenodd;stroke:none"
             id="path376" />
        </g>
        <g
           id="g378"
           transform="translate(207.1943,272.9512)">
          <path
             d="M 0,0 H 188.7 V -10.383 H 0 c -2.856,0 -5.191,2.338 -5.191,5.192 C -5.191,-2.336 -2.856,0 0,0"
             style="fill:#bfbfbf;fill-opacity:1;fill-rule:evenodd;stroke:none"
             id="path380" />
        </g>
        <g
           id="g382"
           transform="translate(395.8945,272.9512)">
          <path
             d="m 0,0 h 65.447 c 2.856,0 5.192,-2.336 5.192,-5.191 0,-2.854 -2.336,-5.192 -5.192,-5.192 H 0 Z"
             style="fill:#ffdd30;fill-opacity:1;fill-rule:evenodd;stroke:none"
             id="path384" />
        </g>
      </g>
    </g>
  </g>
</svg>
