<?xml version="1.0" encoding="UTF-8"?>
<svg id="Calque_1" data-name="Calque 1" xmlns="http://www.w3.org/2000/svg" viewBox="0 0 311.685 79.173">
  <defs>
    <style>
      .cls-1 {
        fill: #1d2f25;
        stroke: #231f20;
        stroke-miterlimit: 10;
      }

      .cls-2 {
        fill: none;
        fill-rule: evenodd;
        stroke-width: 0px;
      }
    </style>
  </defs>
  <path class="cls-1" d="m22.446,65.225c-7.403.126-17.632.032-20.053-2.595,1.705.336,4.054-.099,5.426-1.651v.944c1.61-.971,2.094-.334,3.775-2.123-3.617.708-7.235,1.416-10.852,2.123.157.314.315.629.472.944-.236-.079-.472-.157-.708-.236v-.944c2.137-.503,4.859-1.679,6.134-1.416-.157-.236-.315-.472-.472-.708,2.196.031,4.407-1.778,6.134-.944-.157-.393-.315-.786-.472-1.18,2.55-.436.87-2.524,3.303-2.831-.715-.436-.716-.36-1.651-.236.079-.315.157-.629.236-.944-2.113-.066-2.172.142-4.247.472.236-.315.472-.629.708-.944h.944c-.157-.315-.315-.629-.472-.944.725.122,3.798-.189,4.718-1.651-1.657.547-3.499.803-4.718,0,1.177-.064,2.244-.276,2.831-.944-1.491.312-2.748.86-3.539.236,1.383-1.21,5.216-1.336,6.37-4.011-1.611-.122-1.528-.08-2.831.236v-.944c.944-.393,1.887-.787,2.831-1.18-1.044-.092-1.811.219-2.359-.944.629-.157,1.258-.315,1.887-.472-.315-.315-.629-.629-.944-.944-.531.947-1.813.445-2.831,0-.1.614.23.129-.236.708-2.106-2.109-5.894,1.811-7.314-.472v-1.18h.236c.217.378,5.801.072,6.842-.472,2.649-1.383,15.183-3.177,17.93-3.067v-.944c-.157-.157-.315-.315-.472-.472-.838.499-5.705,1.64-7.078,1.18,2.58-1.39,5.007-1.702,7.785-1.651-.157-.236-.315-.472-.472-.708h4.247v-.236c-.926-.315-.762-.088-1.18-.944.97.1,1.867-.43,2.595-.708-.455-1.295,1.075-4.294,1.416-4.718.458.716.077.246.708.472v-.236c-.786-.472-1.573-.944-2.359-1.416v-.236c1.492-.36,2.584-.996,3.303-2.123-.708.157-1.416.315-2.123.472.236-.55.472-1.101.708-1.651-.236.079-.472.157-.708.236.556-.877.49-.553.708-1.887h1.416c-.236-.079-.472-.157-.708-.236l.236-.472c.55-.393,1.101-.787,1.651-1.18.232.25.405.672,1.18,0h-.472c.079-.157.157-.315.236-.472-1.071.168-1.39.233-1.651-.236-.412-.231-.364-.171,0-.472-.079-.236-.157-.472-.236-.708,1.463.095,2.012-.506,3.067,0-.296-.555-.734-1.576-.472-.944.037-.439,3.002-2.89,4.247-3.539-1.757-.251-3.85-.795-5.426-1.416v-.944c1.313.328,5.18-1.572,6.606-.944-.369.377-.076-.031-.236.472.157-.079.315-.157.472-.236v-.236c-.079-.315-.157-.629-.236-.944h-.236c-.121.201-2.075.51-2.831.236,4.506-.948,8.663-3.852,10.852-3.067-.237-.708-.93-.435-.236-.708.491-.608.815-.658,1.651-.472-.46-1.084-.437-1.619.472-2.359,3.491-1.972,10.121-1.137,16.278-1.651,15.166-1.267,34.131,1.639,49.308,1.887,12.267,1.022,24.537,2.045,36.804,3.067,3.777,1.242,10.858,1.122,14.627.236,4.298-1.01,18.136,1.736,18.402.944,2.121-.779,13.647,2.779,14.155,1.887,3.61-.812,13.434,3.068,14.155,1.887.911-.225,1.723,1.131,2.123.236.168-.1,4.166.815,4.246,1.18,0,0,14.182.191,16.043.236h5.426c4.436,2.02,6.236,1.284,9.909,2.595,1.966.079,3.932.157,5.898.236,3.404,1.411,6.302,2.003,13.919,1.887v.236c-.157.157-.314.315-.472.472v-.472c-.157.079-.315.157-.472.236.157.315.314.629.472.944-.942-.003-2.165-.275-2.831.236.315.157.629.315.944.472.219-.482,2.073-.538,3.067,0-.157.157-.315.315-.472.472-.708.079-1.416.157-2.123.236.545.788.288.292.944.708.666-.697,1.672-.563,2.359.472-2.047.326-2.903,1.732-4.954.944.05.938.144.644-.236,1.416.157.079.315.157.472.236h4.954l-.472.472c-1.258.079-2.517.157-3.775.236.397.426.808.479,1.415.708-.236.315-.472.629-.708.944-.903.312-.491,0-.944.708,1.153-.168,2.618-.201,3.303.472l-.472.708c2.345-.878,6.986.752,11.324,0v.236c-.315.236-.629.472-.944.708-.546-.078-1.243-.344-1.651-.236v1.18c.389.353.431.718.708,1.18.377-.637.08-.325.708-.708.136,2.283,2.789,2.891,4.718,3.775v.236h-.236c-1.651-.314-3.303-.629-4.954-.944v.236c.157.079.315.157.472.236.472.157.944.314,1.415.472-.277,1.089-.038.602.236,1.651.472-.236.944-.472,1.415-.708-.079.393-.157.786-.236,1.18.949-.051,1.409.2,1.887,1.18-.157-.079-.315-.157-.472-.236v.472c-1.037-.477-3.722-1.033-5.19-.944-.007.699.051.479-.236,1.18,1.022.472,2.045.944,3.067,1.416-.948.251-.791.386-1.415.472.079.314.157.629.236.944.985-.021.525-.044,1.415.236v.472h-.236c-.831-.386-1.23-.669-1.887-.236v.236c1.34.083,9.909,2.831,9.909,2.831,0,0,6.82-.034,8.965,1.18-.629.472-1.258.944-1.887,1.416,2.378-.22,2.677-.005,4.011,1.18.315-.079.629-.157.944-.236.088-1.068-.31-.472.472-1.18.048,1.139.123.965.236,1.651-.236.079-.472.157-.708.236-5.347.629-10.696,1.258-16.043,1.887.079.157.157.314.236.472h3.775v.236c-.157.157-.314.315-.472.472-.549.042-2.437.464-3.067,1.18-.236.629-.472,1.258-.708,1.887h.236c1.22-.737,1.185.026,2.359-.236v.708c-1.022.079-2.045.157-3.067.236v.236c.236.708.472,1.416.708,2.123.363-.991-.043-.578.944-.944.032,1.466-.219.928.472,1.651.708-.157,1.416-.315,2.123-.472v.944c-.236.079-.472.157-.708.236-.079-.157-.157-.314-.236-.472-.051,1.064-.407.837-.236,1.416,1.235.139.046-.192,1.415.236.079.236.157.472.236.708-1.276-.122-1.438-.053-2.595.236.079.236.157.472.236.708,1.067-.42,2.738-.939,3.067.708-1.244.037-4.265.746-4.954.944.193.883-.203.71.236,1.18.844.616,1.652.35,2.831.472-.157.157-.314.315-.472.472-3.696.786-7.393,1.573-11.088,2.359.079.157.157.315.236.472,1.817-.159,2.555-.583,3.303,0h.472c-.079.157-.157.315-.236.472-1.258.472-2.517.944-3.775,1.416-.079.629-.157,1.258-.236,1.887h.236c.7-.552,1.17-.736,1.887-.236h.472c-.079.157-.157.315-.236.472-1.178.011-1.94.316-2.831.944-2.066,1.455-11.671-1.454-14.627.236.393.314.786.629,1.18.944-.314.708-.629,1.416-.944,2.123-13.969,1.585-27.5-.984-41.994,1.651h-8.729c-9.514-.079-19.032-.157-28.546-.236h-22.177c-7.863-.236-15.729-.472-23.592-.708-8.976-1.172-17.708-.061-28.075-1.416.157.236.315.472.472.708-8.571-.236-17.144-.472-25.715-.708-22.729-4.245-44.084-5.416-65.35-10.617-.094.898.265.293-.236.944-1.66.064-1.852.127-3.067-.236v-1.18Z"/>
  <path class="cls-2" d="m52.88,7.424c-1.809.472-3.618.944-5.426,1.416-.482.425-.167.004-.472.708h.708c.329-.36,3.01-.881,3.539-.472.265-1.316,1.154-.408,2.123-.944-.748-.405.188-.171-.472-.708Z"/>
  <path class="cls-2" d="m53.824,7.896v.472c.23-.412.215-.052,0-.472Z"/>
  <path class="cls-2" d="m52.172,8.368l-.236.472c.157-.157.315-.315.472-.472h-.236Z"/>
  <path class="cls-2" d="m46.746,9.784c.157.079.315.157.472.236-.157-.079-.315-.157-.472-.236Z"/>
  <path class="cls-2" d="m39.197,12.143h.944v.472h-.236l-.708-.472Z"/>
  <path class="cls-2" d="m38.725,12.379c.236.157.472.315.708.472h-.708v-.472Z"/>
  <path class="cls-2" d="m42.499,12.615c.236.157.472.314.708.472v.236h-.236c-.157-.236-.315-.472-.472-.708Z"/>
  <path class="cls-2" d="m41.556,12.851c.157.236.315.472.472.708-.157-.236-.315-.472-.472-.708Z"/>
  <path class="cls-2" d="m42.028,13.794h.472c-.328.454-.024.141-.472.472v-.472Z"/>
  <path class="cls-2" d="m43.207,15.446l.472.472c-.329-.454-.024-.141-.472-.472Z"/>
  <path class="cls-2" d="m275.354,17.333l.236.472c-.1-.219.189-.159-.236-.472Z"/>
  <path class="cls-2" d="m42.971,18.041c.157.079.315.157.472.236-.157-.079-.315-.157-.472-.236Z"/>
  <path class="cls-2" d="m278.185,18.749c.717.458.246.077.472.708h-.236c-.157-.079-.314-.157-.472-.236.079-.157.157-.315.236-.472Z"/>
  <path class="cls-2" d="m280.544,18.749c.079.157.157.315.236.472-.079-.157-.157-.315-.236-.472Z"/>
  <path class="cls-2" d="m41.084,19.22c-.079.157-.157.315-.236.472h.708l-.472-.472Z"/>
  <path class="cls-2" d="m35.894,22.052c.079.157.157.315.236.472h-.472c.079-.157.157-.315.236-.472Z"/>
  <path class="cls-2" d="m279.364,23.467l.472.472c-.454-.329-.141-.024-.472-.472Z"/>
  <path class="cls-2" d="m280.308,23.467h.472c-.328.454-.024.141-.472.472v-.472Z"/>
  <path class="cls-2" d="m281.488,23.467c.079.157.157.315.236.472-.079-.157-.157-.315-.236-.472Z"/>
  <path class="cls-2" d="m36.837,23.703c-.079.157-.157.315-.236.472.438-.294.129-.211.236-.472Z"/>
  <path class="cls-2" d="m34.478,24.647c1.06.275.788-.203,1.18.708-.786.236-1.573.472-2.359.708v-.708c1.004-.297.708.306,1.18-.708Z"/>
  <path class="cls-2" d="m273.702,24.647c.553.501-.026.104.708.236v-.236h-.708Z"/>
  <path class="cls-2" d="m276.061,25.59c.079.157.157.315.236.472-.079-.157-.157-.315-.236-.472Z"/>
  <path class="cls-2" d="m32.355,25.826c.453.329.141.024.472.472-.157-.157-.315-.315-.472-.472Z"/>
  <path class="cls-2" d="m278.185,26.77l.472.472h-.708c.079-.157.157-.315.236-.472Z"/>
  <path class="cls-2" d="m278.892,26.77c.713.297.282-.004.708.472h-.708v-.472Z"/>
  <path class="cls-2" d="m35.422,28.186c.079.157.157.315.236.472-.079-.157-.157-.315-.236-.472Z"/>
  <path class="cls-2" d="m37.309,28.186c.157.079.315.157.472.236-.157-.079-.315-.157-.472-.236Z"/>
  <path class="cls-2" d="m36.601,28.893c-.079.157-.157.315-.236.472.236.079.472.157.708.236v-.708h-.472Z"/>
  <path class="cls-2" d="m37.073,30.309v.708c.079-.236.157-.472.236-.708h-.236Z"/>
  <path class="cls-2" d="m36.13,31.252c.157.079.315.157.472.236-.157-.079-.314-.157-.472-.236Z"/>
  <path class="cls-2" d="m35.422,32.432l.472.472c-.079-.157-.157-.315-.236-.472h-.236Z"/>
  <path class="cls-2" d="m288.329,32.668c.157.079.315.157.472.236-.157-.079-.315-.157-.472-.236Z"/>
  <path class="cls-2" d="m292.576,34.084h.472c-.412.23-.052.215-.472,0Z"/>
  <path class="cls-2" d="m35.186,34.319c-.629.236-1.258.472-1.887.708.918-.158,1.707.102,2.359-.708h-.472Z"/>
  <path class="cls-2" d="m31.647,34.791c-.629.315-1.258.629-1.887.944v.236c.551.157,1.101.315,1.651.472-.328-.454-.024-.141-.472-.472.079-.157.157-.315.236-.472h1.887c-.472-.569-.504-.521-1.416-.708Z"/>
  <path class="cls-2" d="m29.996,36.207c.157.157.315.314.472.472-.328-.454-.024-.141-.472-.472Z"/>
  <path class="cls-2" d="m292.34,36.915c.079.157.157.315.236.472-.079-.157-.157-.315-.236-.472Z"/>
  <path class="cls-2" d="m23.626,37.151h.708v.236c-.735-.126-.213.322-.708-.236Z"/>
  <path class="cls-2" d="m287.386,39.51v.472c.23-.412.215-.052,0-.472Z"/>
  <path class="cls-2" d="m6.403,39.982c.079.157.157.315.236.472-.079-.157-.157-.315-.236-.472Z"/>
  <path class="cls-2" d="m3.572,40.453c.079.157.157.315.236.472-.079-.157-.157-.315-.236-.472Z"/>
  <path class="cls-2" d="m3.337,40.925c.157.236.315.472.472.708h-.708v-.236c.079-.157.157-.315.236-.472Z"/>
  <path class="cls-2" d="m12.537,41.869l.236.472-.236-.472Z"/>
  <path class="cls-2" d="m287.857,41.869c.157.079.315.157.472.236-.157-.079-.314-.157-.472-.236Z"/>
  <path class="cls-2" d="m290.453,42.341l.472.472c-.454-.328-.141-.024-.472-.472Z"/>
  <path class="cls-2" d="m13.009,43.284c.079.157.157.315.236.472-.079-.157-.157-.315-.236-.472Z"/>
  <path class="cls-2" d="m308.383,47.059c.222.737.424.229-.236.944.079-.314.157-.629.236-.944Z"/>
  <path class="cls-2" d="m13.717,49.182c.236.157.472.315.708.472-.425-.482-.003-.167-.708-.472Z"/>
  <path class="cls-2" d="m8.763,49.418c.448.324.386.23.708.708h-.708v-.708Z"/>
  <path class="cls-2" d="m7.819,49.89c.236.157.472.315.708.472h-.708v-.472Z"/>
  <path class="cls-2" d="m16.076,50.126c-.079.157-.157.315-.236.472.438-.294.129-.211.236-.472Z"/>
  <path class="cls-2" d="m295.407,52.957c-.052.346.098.237-.236.708.079-.236.157-.472.236-.708Z"/>
  <path class="cls-2" d="m293.991,53.193h.708c-.157.236-.315.472-.472.708h-.236v-.708Z"/>
  <path class="cls-2" d="m12.537,53.901c.157.157.315.315.472.472-.453-.329-.141-.024-.472-.472Z"/>
  <path class="cls-2" d="m15.604,54.137c.157.079.314.157.472.236-.157-.079-.315-.157-.472-.236Z"/>
  <path class="cls-2" d="m13.245,54.845c-.1.219.189.159-.236.472.079-.157.157-.315.236-.472Z"/>
  <path class="cls-2" d="m297.294,58.147c.454.328.141.024.472.472l-.472-.472Z"/>
  <path class="cls-2" d="m294.699,59.091c.157.079.315.157.472.236-.157-.079-.315-.157-.472-.236Z"/>
  <path class="cls-2" d="m294.699,59.799l-.236.236c.157.157.315.315.472.472-.079-.236-.157-.472-.236-.708Z"/>
  <path class="cls-2" d="m293.52,60.035c.32.485.264.38.708.708-.324-.448-.23-.386-.708-.708Z"/>
  <path class="cls-2" d="m297.53,60.507c.713.297.282-.004.708.472h-.236l-.472-.472Z"/>
  <path class="cls-2" d="m10.886,60.743c.157.079.315.157.472.236-.157-.079-.315-.157-.472-.236Z"/>
  <path class="cls-2" d="m302.485,61.214c.079.157.157.315.236.472-.079-.157-.157-.315-.236-.472Z"/>
  <path class="cls-2" d="m299.418,61.45l.472.472c-.454-.329-.141-.024-.472-.472Z"/>
  <path class="cls-2" d="m298.238,61.686h.472c-.328.454-.024.141-.472.472v-.472Z"/>
  <path class="cls-2" d="m1.685,62.394c.489.535.393.246.236.944l-.236-.236v-.708Z"/>
  <path class="cls-2" d="m286.206,70.415h.708c-.157.236-.315.472-.472.708h-.236v-.708Z"/>
  <path class="cls-2" d="m285.262,70.651c.482.425.167.003.472.708h-.472v-.708Z"/>
  <path class="cls-2" d="m250.818,76.785c.157.079.314.157.472.236-.157-.079-.315-.157-.472-.236Z"/>
  <path class="cls-2" d="m255.064,76.785c.157.079.314.157.472.236-.157-.079-.315-.157-.472-.236Z"/>
  <path class="cls-2" d="m261.67,76.785c.767.381.486.491,1.18,0h-1.18Z"/>
</svg>